#!OML:ASF H:\Not Pregnant\Project 1\Capture day 1\Session 1\non-pregnant.ASF
:FULLY-SPECIFIED
:DEGREES
637
root -7.9371 16.8137 -27.8276 -163.638 168.125 -182.27
lowerback -4.86646 1.00394 -2.60153
upperback -10.8657 1.39987 -0.145387
thorax -8.78687 0.938573 1.25063
lowerneck 22.2116 -11.7611 -31.4537
upperneck -8.56409 -22.4116 38.2477
head 2.72638 -13.4292 18.6315
rclavicle -2.32081e-014 -1.51076e-014
rhumerus -48.9628 44.8118 -121.912
rradius 72.8742
rwrist -14.2667
rhand -6.19384 -2.77505
rfingers 7.12502
rthumb 19.646 -31.8023
lclavicle -2.32081e-014 -1.51076e-014
lhumerus -49.6707 -2.06177 85.1577
lradius 43.4602
lwrist 61.2263
lhand -27.0592 -19.1963
lfingers 7.12502
lthumb -0.477309 10.7829
rfemur -37.4584 -5.46923 26.8352
rtibia 40.7488
rfoot -17.9519 9.83037
rtoes -9.77436
lfemur -11.2429 12.1672 -25.2653
ltibia 24.8409
lfoot -16.9476 10.1159
ltoes -48.1023
638
root -7.94139 16.8126 -27.7929 -163.504 168.714 -182.204
lowerback -5.0862 0.83959 -2.77542
upperback -10.9144 1.18296 -0.107296
thorax -8.71071 0.845653 1.39801
lowerneck 22.1831 -11.6942 -31.4554
upperneck -8.46017 -22.3426 38.2952
head 2.74105 -13.3987 18.674
rclavicle -8.79622e-015 3.18055e-015
rhumerus -49.0057 44.38 -121.54
rradius 72.4972
rwrist -14.119
rhand -6.81432 -3.24202
rfingers 7.12502
rthumb 19.0494 -32.3292
lclavicle -8.79622e-015 3.18055e-015
lhumerus -48.8791 -2.74738 85.6354
lradius 42.0349
lwrist 59.996
lhand -26.678 -18.9698
lfingers 7.12502
lthumb -0.109103 11.0099
rfemur -37.5745 -5.31345 26.8034
rtibia 40.7722
rfoot -17.539 10.438
rtoes -9.00629
lfemur -11.1746 12.4687 -25.4153
ltibia 24.7245
lfoot -16.8447 10.1701
ltoes -48.1484
639
root -7.94403 16.8102 -27.7585 -163.333 169.359 -182.159
lowerback -5.32543 0.71093 -2.90552
upperback -10.9739 1.01452 -0.0842876
thorax -8.63513 0.772418 1.50278
lowerneck 22.1393 -11.644 -31.4423
upperneck -8.37549 -22.285 38.3437
head 2.75569 -13.3727 18.7087
rclavicle -1.70955e-014 1.03368e-014
rhumerus -48.9545 43.8007 -121.053
rradius 72.0308
rwrist -13.8017
rhand -7.34273 -3.69466
rfingers 7.12502
rthumb 18.5412 -32.831
lclavicle -1.70955e-014 1.03368e-014
lhumerus -48.1092 -3.42771 86.0559
lradius 40.6815
lwrist 58.4055
lhand -26.1445 -18.822
lfingers 7.12502
lthumb 0.406137 11.1574
rfemur -37.7057 -4.90426 26.6969
rtibia 40.7664
rfoot -17.2237 10.8705
rtoes -8.56017
lfemur -11.1956 12.6905 -25.5899
ltibia 24.6959
lfoot -16.7282 10.3621
ltoes -48.195
640
root -7.94598 16.806 -27.7227 -163.167 170.023 -182.13
lowerback -5.56893 0.600571 -3.00966
upperback -11.0382 0.871133 -0.0651594
thorax -8.56247 0.709239 1.58743
lowerneck 22.1207 -11.5878 -31.4327
upperneck -8.31387 -22.2217 38.3936
head 2.75832 -13.3461 18.7501
rclavicle -3.18055e-014 -1.19271e-015
rhumerus -48.8637 43.068 -120.485
rradius 71.4931
rwrist -13.4168
rhand -7.74656 -4.16793
rfingers 7.12502
rthumb 18.1527 -33.3409
lclavicle -3.18055e-014 -1.19271e-015
lhumerus -47.3942 -4.0666 86.411
lradius 39.4254
lwrist 56.4745
lhand -25.4948 -18.7959
lfingers 7.12502
lthumb 1.03372 11.1814
rfemur -37.7962 -4.28298 26.5196
rtibia 40.7414
rfoot -17.0346 11.1362
rtoes -8.42184
lfemur -11.2358 12.846 -25.7649
ltibia 24.7262
lfoot -16.6032 10.6616
ltoes -48.267
641
root -7.94829 16.8002 -27.6838 -163.039 170.656 -182.103
lowerback -5.79086 0.49088 -3.09888
upperback -11.0874 0.728143 -0.050998
thorax -8.48445 0.644302 1.65752
lowerneck 22.0876 -11.5441 -31.4185
upperneck -8.27049 -22.1671 38.4404
head 2.76063 -13.3222 18.7843
rclavicle 1.90336e-014 -1.03368e-014
rhumerus -48.7016 42.1908 -119.818
rradius 70.884
rwrist -13.0245
rhand -7.97671 -4.68131
rfingers 7.12502
rthumb 17.9312 -33.8747
lclavicle 1.90336e-014 -1.03368e-014
lhumerus -46.7235 -4.6501 86.6896
lradius 38.2931
lwrist 54.275
lhand -24.7867 -18.9161
lfingers 7.12502
lthumb 1.71754 11.0567
rfemur -37.8003 -3.5167 26.2814
rtibia 40.7085
rfoot -16.9811 11.2455
rtoes -8.54576
lfemur -11.2333 12.953 -25.9192
ltibia 24.7894
lfoot -16.4847 11.0101
ltoes -48.3701
642
root -7.95303 16.7929 -27.6399 -162.993 171.186 -182.061
lowerback -5.97519 0.353194 -3.21212
upperback -11.1086 0.547315 -0.0341616
thorax -8.39475 0.561904 1.74349
lowerneck 22.0943 -11.5021 -31.3983
upperneck -8.26456 -22.1146 38.4694
head 2.74264 -13.3012 18.8132
rclavicle 8.34896e-015 -9.54166e-015
rhumerus -48.5001 41.173 -119.079
rradius 70.2133
rwrist -12.7249
rhand -8.03431 -5.25676
rfingers 7.12502
rthumb 17.8758 -34.4552
lclavicle 8.34896e-015 -9.54166e-015
lhumerus -46.1273 -5.1719 86.8958
lradius 37.3233
lwrist 51.9069
lhand -24.119 -19.183
lfingers 7.12502
lthumb 2.36239 10.7837
rfemur -37.6585 -2.6843 26.0008
rtibia 40.6783
rfoot -17.065 11.17
rtoes -8.85258
lfemur -11.1166 13.0443 -26.0214
ltibia 24.863
lfoot -16.3983 11.3109
ltoes -48.5022
643
root -7.95929 16.7846 -27.593 -162.998 171.623 -181.998
lowerback -6.12397 0.188549 -3.33801
upperback -11.1189 0.329919 -0.0156235
thorax -8.31088 0.462169 1.83767
lowerneck 22.1311 -11.4517 -31.388
upperneck -8.28216 -22.0552 38.4859
head 2.70948 -13.2779 18.8438
rclavicle 2.46493e-014 7.95139e-016
rhumerus -48.2976 40.0614 -118.309
rradius 69.4782
rwrist -12.5546
rhand -8.01237 -5.89066
rfingers 7.12502
rthumb 17.8969 -35.0872
lclavicle 2.46493e-014 7.95139e-016
lhumerus -45.6121 -5.61643 87.0363
lradius 36.5327
lwrist 49.4759
lhand -23.5187 -19.5743
lfingers 7.12502
lthumb 2.94218 10.3851
rfemur -37.4291 -1.8538 25.7043
rtibia 40.6598
rfoot -17.2392 10.9537
rtoes -9.26635
lfemur -10.9271 13.1132 -26.0939
ltibia 24.9382
lfoot -16.3337 11.5626
ltoes -48.6363
644
root -7.96635 16.7752 -27.5435 -163.044 171.995 -181.926
lowerback -6.24604 0.0110814 -3.45759
upperback -11.1172 0.0947725 -0.000892965
thorax -8.22682 0.352526 1.92343
lowerneck 22.1879 -11.4028 -31.3761
upperneck -8.32798 -21.9955 38.4868
head 2.66202 -13.2547 18.8687
rclavicle -8.24956e-015 6.75868e-015
rhumerus -48.072 38.8498 -117.494
rradius 68.678
rwrist -12.5397
rhand -7.93444 -6.57919
rfingers 7.12502
rthumb 17.9719 -35.7688
lclavicle -8.24956e-015 6.75868e-015
lhumerus -45.1774 -5.99915 87.1169
lradius 35.9471
lwrist 47.1128
lhand -23.0279 -20.0556
lfingers 7.12502
lthumb 3.41612 9.89677
rfemur -37.139 -1.05434 25.4224
rtibia 40.6582
rfoot -17.472 10.6248
rtoes -9.73159
lfemur -10.6782 13.1747 -26.1385
ltibia 25.0092
lfoot -16.2846 11.7683
ltoes -48.7671
645
root -7.97276 16.7654 -27.4941 -163.073 172.349 -181.856
lowerback -6.36766 -0.160541 -3.5442
upperback -11.1206 -0.132802 0.00667188
thorax -8.14781 0.243647 1.98214
lowerneck 22.2444 -11.3629 -31.3604
upperneck -8.40432 -21.9394 38.4702
head 2.60413 -13.2314 18.8824
rclavicle -2.27608e-014 -1.31198e-014
rhumerus -47.8201 37.5562 -116.631
rradius 67.8231
rwrist -12.7172
rhand -7.80446 -7.33741
rfingers 7.12502
rthumb 18.097 -36.5155
lclavicle -2.27608e-014 -1.31198e-014
lhumerus -44.8175 -6.33094 87.154
lradius 35.5907
lwrist 44.951
lhand -22.6348 -20.5833
lfingers 7.12502
lthumb 3.7958 9.36265
rfemur -36.8809 -0.311621 25.1765
rtibia 40.676
rfoot -17.7181 10.2603
rtoes -10.1393
lfemur -10.4524 13.2265 -26.1856
ltibia 25.0804
lfoot -16.2247 11.9697
ltoes -48.9069
646
root -7.97812 16.7553 -27.4442 -163.094 172.7 -181.795
lowerback -6.48479 -0.329389 -3.59747
upperback -11.1416 -0.356722 0.0213987
thorax -8.09049 0.134774 2.02888
lowerneck 22.3352 -11.306 -31.3723
upperneck -8.50025 -21.8708 38.4276
head 2.52912 -13.2017 18.8962
rclavicle -6.16232e-015 -1.39149e-014
rhumerus -47.6151 36.216 -115.773
rradius 66.9235
rwrist -13.1827
rhand -7.70097 -8.16431
rfingers 7.12502
rthumb 18.1965 -37.3332
lclavicle -6.16232e-015 -1.39149e-014
lhumerus -44.5704 -6.58057 87.1602
lradius 35.4707
lwrist 43.0996
lhand -22.3473 -21.0953
lfingers 7.12502
lthumb 4.07337 8.84555
rfemur -36.6464 0.362578 24.9773
rtibia 40.7117
rfoot -17.9546 9.8913
rtoes -10.4412
lfemur -10.2345 13.2774 -26.2303
ltibia 25.1502
lfoot -16.1564 12.1752
ltoes -49.0528
